<?xml version="1.0" encoding="UTF-8"?>
<svg xmlns="http://www.w3.org/2000/svg" xmlns:xlink="http://www.w3.org/1999/xlink" width="32px" height="32px" viewBox="0 0 32 32" version="1.1">
<g id="surface1">
<path style=" stroke:none;fill-rule:nonzero;fill:rgb(100%,100%,100%);fill-opacity:1;" d="M 31.996094 16 C 31.996094 24.832031 24.835938 31.996094 16 31.996094 C 7.164062 31.996094 0.00390625 24.832031 0.00390625 16 C 0.00390625 7.164062 7.164062 0 16 0 C 24.835938 0 31.996094 7.164062 31.996094 16 Z M 31.996094 16 "/>
<path style=" stroke:none;fill-rule:nonzero;fill:rgb(94.901961%,40.784314%,13.333333%);fill-opacity:1;" d="M 16 0 C 7.167969 0 -0.0078125 7.171875 0.00390625 15.996094 C 0.0078125 17.761719 0.289062 19.460938 0.816406 21.050781 L 5.601562 21.050781 L 5.601562 7.59375 L 16 17.988281 L 26.398438 7.59375 L 26.398438 21.050781 L 31.183594 21.050781 C 31.714844 19.460938 31.992188 17.765625 31.996094 16 C 32.011719 7.164062 24.832031 0.00390625 16 0.00390625 Z M 16 0 "/>
<path style=" stroke:none;fill-rule:nonzero;fill:rgb(30.196078%,30.196078%,30.196078%);fill-opacity:1;" d="M 13.609375 20.378906 L 9.070312 15.84375 L 9.070312 24.3125 L 2.328125 24.3125 C 5.136719 28.917969 10.210938 32 16 32 C 21.789062 32 26.863281 28.917969 29.671875 24.3125 L 22.925781 24.3125 L 22.925781 15.84375 L 16 22.769531 Z M 13.609375 20.378906 "/>
</g>
</svg>
